<svg enable-background="new -58.325 -44.177 369 369" height="369" viewBox="-58.325 -44.177 369 369" width="369" xmlns="http://www.w3.org/2000/svg"><path d="m37.13 73.004 85.274 37.1 92.323-11.179-85.182-37.728z" fill="#fff"/><g stroke="#000" stroke-miterlimit="10" stroke-width="2"><g stroke-linejoin="round"><path d="m9.69 38.611 96.192-11.65 23.812 33.209-96.286 12.301z" fill="#fff" stroke-linecap="round"/><path d="m250.854 73.812-88.848-38.66-32.312 25.018 88.753 39.309z" fill="#fff" stroke-linecap="round"/><path d="m62.05.208h21.986v122.776h-21.986z" fill="#fff" transform="matrix(.9148 -.4039 .4039 .9148 -18.6563 34.7529)"/><path d="m49.572 14.082-7.974 3.521" fill="#fff"/><path d="m55.046 26.479-7.975 3.521" fill="#fff"/><path d="m60.521 38.875-7.976 3.522" fill="#fff"/><path d="m65.997 51.271-7.976 3.521" fill="#fff"/><path d="m71.469 63.666-7.972 3.522" fill="#fff"/><path d="m76.944 76.063-7.972 3.522" fill="#fff"/><path d="m82.421 88.459-7.976 3.521" fill="#fff"/><path d="m87.895 100.855-7.974 3.522" fill="#fff"/><path d="m93.369 113.252-7.974 3.521" fill="#fff"/><path d="m125.089 41.37-1.727-9.428-12.352-2.322-5.035 8.157c-30.244 7.628-18.949 61.24-18.949 61.24-6.519 7.736 2.926 12.215 9.147 13.385l13.805 2.596c6.221 1.17 16.648.427 13.384-9.146.001 0 27.138-46.388 1.727-64.482z" fill="#fff" stroke-linecap="round"/><path d="m123.597 30.697c-.484 2.577-3.693 4.137-7.169 3.482-3.475-.653-5.901-3.272-5.417-5.849l1.251-6.647 12.585 2.365z" fill="#fff" stroke-linecap="round"/><path d="m128.229 23.394c-.484 2.577-5.104 3.872-10.318 2.892-5.212-.98-9.046-3.864-8.562-6.439l1.251-6.65 18.878 3.551z" fill="#fff" stroke-linecap="round"/><ellipse cx="120.039" cy="14.971" fill="#fff" rx="9.605" ry="4.748" stroke-linecap="round" transform="matrix(.9828 .1848 -.1848 .9828 4.8358 -21.9308)"/><path d="m89.66 52.329s13.671-5.622 21.554 1.688c0 0 9.231 8.895 23.525 4.547" fill="#fff" stroke-linecap="round"/><path d="m144.763 38.174-8.68 2.441-18.185 84.824 50.387 24.383 8.682-2.441 32.048-84.973z" fill="#fff" stroke-linecap="round"/><path d="m106.776 60.885h90.816v68.668h-90.816z" fill="#fff" stroke-linecap="round" transform="matrix(.3529 -.9357 .9357 .3529 9.3874 204.0108)"/><path d="m133.69 71.566h39.644v40.264h-39.644z" fill="#fff" stroke-linecap="round" transform="matrix(.3529 -.9357 .9357 .3529 13.543 202.9772)"/><path d="m181.643 74.162-37.672-14.209" fill="#fff" stroke-linecap="round"/><path d="m152.738 119.873-17.252-6.506" fill="#fff" stroke-linecap="round"/><path d="m153.454 125.439-22.179-8.365" fill="#fff" stroke-linecap="round"/><path d="m209.015 62.408-8.679 2.441" fill="#fff" stroke-linecap="round"/><path d="m122.257 111.13-55.473-16.277-33.377-22.382-13.539 92.76c-10.559 72.342 83.604 36.905 88.846 38.684 5.535-.204 85.636 60.666 96.194-11.674l13.539-92.761-53.096 14.29z" fill="#fff" stroke-linecap="round"/><path d="m242.165 133.341-96.098 10.996-23.812-33.208 96.191-11.647z" fill="#fff" stroke-linecap="round"/><path d="m122.257 111.13-23.444 160.608" fill="#fff" stroke-linecap="round"/><path d="m19.863 165.255 96.289-12.301 88.752 39.31" fill="none" stroke-linecap="round"/><path d="m90.595 128.336c2.242 24.451 6.787 74.011 6.787 74.011l-65.063 5.965s-4.51-49.21-6.783-74.013c-.768-8.354-6.258-13.484-6.258-13.484l65.06-5.963s5.543 5.683 6.257 13.484z" fill="#fff" stroke-linecap="round"/><path d="m32.326 129.996 50.81-4.658" fill="#fff" stroke-linecap="round"/><path d="m32.996 137.297 50.809-4.656" fill="#fff" stroke-linecap="round"/><path d="m33.666 144.601 50.808-4.658" fill="#fff" stroke-linecap="round"/><path d="m34.335 151.905 50.81-4.659" fill="#fff" stroke-linecap="round"/><path d="m35.003 159.204 50.811-4.655" fill="#fff" stroke-linecap="round"/><path d="m35.674 166.509 50.809-4.657" fill="#fff" stroke-linecap="round"/><path d="m36.343 173.812 50.809-4.657" fill="#fff" stroke-linecap="round"/><path d="m37.012 181.114 50.809-4.659" fill="#fff" stroke-linecap="round"/><path d="m37.682 188.417 50.809-4.656" fill="#fff" stroke-linecap="round"/><path d="m180.725 170.422-10.677-13.924-1.582 1.219s1.613 16.111-9.109 20.972c0 0-40.486 23.582-37.556 36.771l-.086.064c.035.021.072.036.112.056.007.041.013.078.022.123l.084-.067c11.979 6.252 45.262-26.725 45.262-26.725 7.477-9.09 22.618-3.35 22.618-3.35l1.583-1.219z" fill="#fff" stroke-linecap="round"/><path d="m188.979 164.095-10.675-13.925-8.256 6.328 10.677 13.924 10.671 13.921 8.258-6.326z" fill="#fff" stroke-linecap="round"/><path d="m198.036 130.766c-6.583 6.564-12.521 13.717-19.736 19.401 7.121 9.284 14.239 18.567 21.359 27.854 7.358-5.492 15.806-9.368 23.856-14.018-7.264-12.036-15.746-23.097-25.479-33.237z" fill="#fff" stroke-linecap="round"/><path d="m200.955 133.876c-6.945 6.712-13.255 13.454-20.49 19.112" fill="#fff" stroke-linecap="round"/><path d="m204.665 138.041c-7.401 6.717-14.102 13.018-21.362 18.647" fill="#fff" stroke-linecap="round"/><path d="m208.25 142.308c-7.812 6.543-14.834 12.473-22.109 18.082" fill="#fff" stroke-linecap="round"/><path d="m211.7 146.673c-8.136 6.238-15.428 11.829-22.722 17.422" fill="#fff" stroke-linecap="round"/><path d="m215.021 151.139c-8.346 5.846-15.896 11.085-23.203 16.658" fill="#fff" stroke-linecap="round"/><path d="m218.21 155.704c-8.407 5.408-16.229 10.245-23.555 15.794" fill="#fff" stroke-linecap="round"/><path d="m221.271 160.373c-8.286 4.965-16.436 9.307-23.777 14.825" fill="#fff" stroke-linecap="round"/><path d="m133.04 209.291c-1.554 1.197-3.319 1.512-3.934.708-.62-.804.143-2.424 1.702-3.62 1.558-1.193 3.321-1.51 3.938-.705.615.803-.147 2.425-1.706 3.617z" fill="#fff" stroke-linecap="round"/><path d="m1 98.141 88.945 38.005 32.312-25.016-88.85-38.655z" fill="#fff" stroke-linecap="round"/><path d="m26.307 193.984c8.945 7.877 6.555 22.425 6.607 22.385-.125-.099-14.331 1.591-22.791-5.427-8.575-7.113-8.991-21.555-8.941-21.594-.138-.102 16.051-3.344 25.125 4.636z" fill="#fff" stroke-linecap="round"/><path d="m1.183 189.349c11.781 8.258 22.379 17.35 31.731 27.021" fill="#fff" stroke-linecap="round"/><path d="m15.58 189.185c-.192 3.548-.395 7.094-.609 10.639-3.677.776-7.31 1.637-10.896 2.579" fill="none" stroke-linecap="round"/><path d="m11.094 211.759c4.478-1.217 9.039-2.301 13.676-3.242 1.046-4.295 2.106-8.588 3.183-12.879" fill="none" stroke-linecap="round"/><path d="m66.988 185.759-47.124-20.504c-10.536 72.323 73.706 104.707 78.948 106.483" fill="#fff" stroke-linecap="round"/><path d="m98.813 271.738c5.544-.206 95.517-7.161 106.091-79.475l-51.017 6.18" fill="#fff" stroke-linecap="round"/><path d="m153.888 198.443-45.174 5.471-41.726-18.155c-4.278 62.119 29.566 84.701 31.823 85.979h.002c2.535-.58 41.417-12.549 55.075-73.295z" fill="#fff" stroke-linecap="round"/><path d="m142.398 152.791h13.674v97.447h-13.674z" fill="#fff" stroke-linecap="round" transform="matrix(.9404 -.34 .34 .9404 -59.6175 62.7346)"/><path d="m159.37 249.66c1.917 5.3 5.599 6.481 9.149 5.198 3.549-1.282 5.628-4.545 3.71-9.847z" fill="#fff" stroke-linecap="round"/><path d="m128.366 143.781c-.77.278-1.58.331-2.395.212l.269 14.024 12.859-4.648-8.762-10.956c-.549.614-1.205 1.092-1.971 1.368z" fill="#fff" stroke-linecap="round"/><path d="m130.338 142.413-4.505-5.634.139 7.214c.814.119 1.625.066 2.395-.212.765-.276 1.421-.754 1.971-1.368z" fill="#fff" stroke-linecap="round"/><path d="m165.801 247.337-33.132-91.643" fill="#fff" stroke-linecap="round"/><path d="m162.123 217.321-1.74-6.976-1.698.426s-6.292 5.578-16.594 5.746c0 0-40.71 4.831-42.951 16.441l-.09.022c.021.029.045.056.068.084-.009.035-.018.07-.022.105l.091-.024c7.438 9.193 45.637-5.692 45.637-5.692 9.169-4.695 17.348-2.734 17.348-2.734l1.695-.423z" fill="#fff" stroke-linecap="round"/><path d="m184.002 211.857c-.767-3.081-2.305-5.969-4.608-8.666-5.801 4.526-11.763 8.419-19.011 7.154-.764 3.461-1.329 4.471-.561 7.549.771 3.08 1.743 3.706 4.045 6.402 5.802-4.523 12.896-3.892 20.143-2.63.765-3.461.762-6.732-.008-9.809z" fill="#fff" stroke-linecap="round"/><path d="m222.957 202.123-2.311-9.236-41.252 10.304 2.307 9.24 2.309 9.236 41.256-10.306z" fill="#fff" stroke-linecap="round"/><ellipse cx="109.922" cy="230.365" fill="#fff" rx="1.605" ry="3.11" stroke-linecap="round" transform="matrix(.2422 .9702 -.9702 .2422 306.8085 67.9258)"/><path d="m70.124 248.072c-11.27 3.179-23.39-4.791-23.648-4.683.084.003 4.556-14.049 16.791-17.964 12.521-4.063 26.906 5.036 26.648 5.152.13.028-8.215 14.203-19.791 17.495z" fill="#fff" stroke-linecap="round"/><path d="m89.916 230.578c-15.813 3.638-30.154 8.057-43.439 12.812" fill="#fff" stroke-linecap="round"/><path d="m80.544 241.975c-2.958-2.277-6.033-4.481-9.226-6.599 1.439-3.506 2.851-7.004 4.21-10.494" fill="none" stroke-linecap="round"/><path d="m61.88 225.864c-1.296 4.5-2.681 9.021-4.111 13.562 3.559 2.928 6.91 5.988 10.042 9.158" fill="none" stroke-linecap="round"/><path d="m52.842 234.294c-.366 7.305-6.583 12.927-13.886 12.563-7.302-.365-12.927-6.583-12.562-13.886l.599-11.964c.661-13.217 6.581-12.929 13.885-12.563 7.303.367 13.224.663 12.563 13.886z" fill="#fff" stroke-linecap="round"/></g><path d="m26.993 221.007 26.433 1.322" fill="#fff"/><path d="m40.209 221.667.661-13.216s-.384-18.239 22.737-15.227c0 0 33.508 3.982 49.782-21.979" fill="none" stroke-linecap="round" stroke-linejoin="round"/></g><g fill="#fff"><path d="m99.82 279.124c-1.387.104-2.78-.101-4.082-.597.355-2.43.71-4.861 1.064-7.291 1.302.497 2.695.7 4.082.596-.355 2.432-.709 4.861-1.064 7.292z"/><path d="m99.82 279.124c-1.387.104-2.78-.101-4.082-.597.355-2.43.71-4.861 1.064-7.291 1.302.497 2.695.7 4.082.596-.355 2.432-.709 4.861-1.064 7.292z" stroke="#000" stroke-linecap="round" stroke-linejoin="round" stroke-miterlimit="10" stroke-width="2"/></g></svg>